<svg width="20" height="21" viewBox="0 0 20 21" fill="none" xmlns="http://www.w3.org/2000/svg">
<path d="M6.45842 2.58325C6.45842 2.23808 6.17859 1.95825 5.83342 1.95825C5.48824 1.95825 5.20841 2.23808 5.20841 2.58325V3.8993C4.00897 3.99534 3.22156 4.23106 2.64306 4.80956C2.06456 5.38806 1.82884 6.17548 1.7328 7.37492H18.2673C18.1713 6.17548 17.9356 5.38806 17.3571 4.80956C16.7786 4.23106 15.9912 3.99534 14.7917 3.8993V2.58325C14.7917 2.23808 14.5119 1.95825 14.1667 1.95825C13.8216 1.95825 13.5417 2.23808 13.5417 2.58325V3.844C12.9873 3.83325 12.3659 3.83325 11.6667 3.83325H8.33342C7.63422 3.83325 7.01281 3.83325 6.45842 3.844V2.58325Z" fill="#777A71"/>
<path fill-rule="evenodd" clip-rule="evenodd" d="M1.66675 10.4999C1.66675 9.80075 1.66675 9.17934 1.6775 8.62492H18.3227C18.3334 9.17934 18.3334 9.80075 18.3334 10.4999V12.1666C18.3334 15.3093 18.3334 16.8807 17.3571 17.8569C16.3808 18.8333 14.8094 18.8333 11.6667 18.8333H8.33342C5.19071 18.8333 3.61937 18.8333 2.64306 17.8569C1.66675 16.8807 1.66675 15.3093 1.66675 12.1666V10.4999ZM14.1667 12.1666C14.627 12.1666 15.0001 11.7935 15.0001 11.3333C15.0001 10.873 14.627 10.4999 14.1667 10.4999C13.7065 10.4999 13.3334 10.873 13.3334 11.3333C13.3334 11.7935 13.7065 12.1666 14.1667 12.1666ZM14.1667 15.4999C14.627 15.4999 15.0001 15.1268 15.0001 14.6666C15.0001 14.2063 14.627 13.8333 14.1667 13.8333C13.7065 13.8333 13.3334 14.2063 13.3334 14.6666C13.3334 15.1268 13.7065 15.4999 14.1667 15.4999ZM10.8334 11.3333C10.8334 11.7935 10.4603 12.1666 10.0001 12.1666C9.53983 12.1666 9.16675 11.7935 9.16675 11.3333C9.16675 10.873 9.53983 10.4999 10.0001 10.4999C10.4603 10.4999 10.8334 10.873 10.8334 11.3333ZM10.8334 14.6666C10.8334 15.1268 10.4603 15.4999 10.0001 15.4999C9.53983 15.4999 9.16675 15.1268 9.16675 14.6666C9.16675 14.2063 9.53983 13.8333 10.0001 13.8333C10.4603 13.8333 10.8334 14.2063 10.8334 14.6666ZM5.83342 12.1666C6.29365 12.1666 6.66675 11.7935 6.66675 11.3333C6.66675 10.873 6.29365 10.4999 5.83342 10.4999C5.37318 10.4999 5.00008 10.873 5.00008 11.3333C5.00008 11.7935 5.37318 12.1666 5.83342 12.1666ZM5.83342 15.4999C6.29365 15.4999 6.66675 15.1268 6.66675 14.6666C6.66675 14.2063 6.29365 13.8333 5.83342 13.8333C5.37318 13.8333 5.00008 14.2063 5.00008 14.6666C5.00008 15.1268 5.37318 15.4999 5.83342 15.4999Z" fill="#777A71"/>
</svg>
